<svg width="44" height="46" viewBox="0 0 44 46" fill="none" xmlns="http://www.w3.org/2000/svg">
<path fill-rule="evenodd" clip-rule="evenodd" d="M23.9655 0.931152H20.6318C20.1638 1.0264 19.6926 1.11136 19.2213 1.19632C18.1902 1.38224 17.1591 1.56814 16.1619 1.86171C7.53875 4.40197 1.63869 11.5885 0.763641 20.5284C0.339177 24.8481 1.23382 28.8968 3.30716 32.6876C3.63041 33.2786 3.71204 33.7586 3.48348 34.4083C2.37008 37.5722 1.30565 40.7524 0.241223 43.9327C0.154567 44.1858 0.115692 44.4548 0.0767656 44.7243C0.0599572 44.8406 0.0431393 44.957 0.0224609 45.0722C1.02108 44.7467 2.02083 44.4246 3.02063 44.1024C5.42056 43.3292 7.82077 42.5558 10.2063 41.7352C11.2904 41.363 12.185 41.4349 13.2429 41.9116C25.6732 47.508 39.7034 40.8994 43.2623 27.7965C43.4892 26.9608 43.6311 26.1035 43.773 25.2459C43.8374 24.8569 43.9018 24.4679 43.9741 24.0808V20.7471C43.8665 20.2399 43.7763 19.7266 43.6861 19.2134C43.4888 18.0911 43.2916 16.969 42.913 15.9115C39.8078 7.24588 33.6662 2.27964 24.5141 1.08461C24.3876 1.06908 24.2642 1.02792 24.1407 0.986747C24.0824 0.967324 24.0241 0.947897 23.9655 0.931152ZM6.93227 39.2334C6.38803 39.405 5.83454 39.5796 5.26891 39.7596C5.45016 39.2223 5.62803 38.6999 5.80223 38.1883C6.3341 36.6262 6.83173 35.1647 7.28675 33.6865C7.40102 33.3208 7.33246 32.7755 7.12676 32.4555C0.149213 21.5827 5.82398 7.62763 18.4142 4.7576C28.4316 2.47529 38.6579 9.34835 40.2676 19.4473C41.861 29.4451 35.1479 38.7376 25.1502 40.3114C20.8761 40.984 16.8372 40.1906 13.0986 38.003C12.5077 37.6569 12.0081 37.5818 11.3649 37.8005C9.91761 38.2918 8.46147 38.7511 6.93227 39.2334Z" fill="#FFECE3"/>
<path d="M11.5742 17.707C11.7375 16.2084 12.2566 14.9873 13.0826 13.8347C13.9413 12.63 15.1265 12.5385 16.3933 12.7344C16.6709 12.7769 16.9908 13.1262 17.1214 13.4136C17.732 14.7457 18.385 16.0713 18.7964 17.4687C18.9498 17.9878 18.6331 18.7943 18.2805 19.2873C17.0692 20.9655 17.03 20.9328 18.2772 22.6535C19.8705 24.8508 21.934 26.4343 24.4383 27.4759C25.0945 27.7468 25.5484 27.662 25.9728 27.1134C26.3907 26.5714 26.8772 26.0784 27.2657 25.5201C27.6543 24.9585 28.1179 24.8443 28.6958 25.1153C30.054 25.7519 31.4253 26.3625 32.7378 27.0775C33.035 27.2408 33.2896 27.8056 33.27 28.1713C33.1623 30.2739 31.8628 31.8411 29.7406 32.2754C28.7513 32.4778 27.6477 32.5105 26.6682 32.2917C20.2003 30.8453 15.8252 26.7086 12.6974 21.0961C12.126 20.0709 11.9366 18.84 11.5742 17.707Z" fill="#FFECE3"/>
</svg>
