<svg width="27" height="26" viewBox="0 0 27 26" fill="none" xmlns="http://www.w3.org/2000/svg">
<path fill-rule="evenodd" clip-rule="evenodd" d="M1.618 3.84932C0.849609 5.35738 0.849609 7.33154 0.849609 11.2799V14.5698C0.849609 18.5181 0.849609 20.4923 1.618 22.0003C2.2939 23.3269 3.3724 24.4054 4.69893 25.0812C6.20699 25.8497 8.18115 25.8497 12.1295 25.8497H15.4194C19.3677 25.8497 21.3419 25.8497 22.8499 25.0812C24.1765 24.4054 25.255 23.3269 25.9308 22.0003C26.6993 20.4923 26.6993 18.5181 26.6993 14.5698V11.2799C26.6993 7.33154 26.6993 5.35738 25.9308 3.84932C25.255 2.52279 24.1765 1.44429 22.8499 0.768393C21.3419 0 19.3677 0 15.4194 0H12.1295C8.18115 0 6.20699 0 4.69893 0.768393C3.3724 1.44429 2.2939 2.52279 1.618 3.84932ZM15.4194 2.34997H12.1295C10.1165 2.34997 8.74815 2.3518 7.69047 2.43821C6.66019 2.52239 6.13333 2.67496 5.76579 2.86223C4.88144 3.31284 4.16244 4.03183 3.71184 4.91618C3.52457 5.28372 3.372 5.81058 3.28782 6.84086C3.20141 7.89854 3.19958 9.26692 3.19958 11.2799V14.5698C3.19958 16.5828 3.20141 17.9511 3.28782 19.0088C3.372 20.0391 3.52457 20.566 3.71184 20.9335C4.16244 21.8178 4.88144 22.5368 5.76579 22.9874C6.13333 23.1747 6.66019 23.3273 7.69047 23.4115C8.74815 23.4978 10.1165 23.4997 12.1295 23.4997H15.4194C17.4324 23.4997 18.8007 23.4978 19.8584 23.4115C20.8887 23.3273 21.4156 23.1747 21.7831 22.9874C22.6674 22.5368 23.3864 21.8178 23.837 20.9335C24.0243 20.566 24.1769 20.0391 24.2611 19.0088C24.3474 17.9511 24.3493 16.5828 24.3493 14.5698V11.2799C24.3493 9.26692 24.3474 7.89854 24.2611 6.84086C24.1769 5.81058 24.0243 5.28372 23.837 4.91618C23.3864 4.03183 22.6674 3.31284 21.7831 2.86223C21.4156 2.67496 20.8887 2.52239 19.8584 2.43821C18.8007 2.3518 17.4324 2.34997 15.4194 2.34997Z" fill="#762B06"/>
<path d="M14.3136 5.9196C15.043 5.90846 15.767 5.91425 16.4906 5.90846C16.5146 6.81338 16.8818 7.62786 17.4659 8.23114L17.465 8.23025C18.0937 8.79655 18.9117 9.16369 19.8135 9.22606L19.826 9.22696V11.4708C18.9741 11.4494 18.173 11.2529 17.4507 10.9152L17.4873 10.9303C17.138 10.7623 16.8426 10.5899 16.5619 10.3974L16.585 10.4126C16.5797 12.0384 16.5904 13.6642 16.5739 15.2843C16.528 16.1099 16.2535 16.8629 15.8133 17.4916L15.8222 17.4777C15.0862 18.5319 13.8939 19.2239 12.5381 19.2649H12.5318C12.477 19.2675 12.4124 19.2689 12.3474 19.2689C11.5765 19.2689 10.8561 19.0541 10.2421 18.6812L10.2599 18.6914C9.14248 18.0191 8.37167 16.8687 8.22909 15.5307L8.22731 15.5124C8.21617 15.2339 8.21083 14.9555 8.22197 14.6828C8.44029 12.5535 10.2243 10.9063 12.3928 10.9063C12.6365 10.9063 12.8753 10.9272 13.1075 10.9668L13.0825 10.9633C13.0937 11.7871 13.0602 12.6114 13.0602 13.4352C12.8718 13.3671 12.6543 13.3274 12.4276 13.3274C11.5953 13.3274 10.8873 13.8594 10.6253 14.6021L10.6213 14.6155C10.562 14.8057 10.5277 15.0245 10.5277 15.2509C10.5277 15.3426 10.5335 15.4335 10.5442 15.5226L10.5433 15.512C10.6912 16.4236 11.4727 17.1115 12.4151 17.1115C12.4423 17.1115 12.469 17.1111 12.4957 17.1097H12.4917C13.1436 17.0901 13.7094 16.7395 14.0293 16.2213L14.0338 16.2133C14.1527 16.0475 14.2343 15.847 14.2615 15.6291L14.2619 15.6229C14.3176 14.6262 14.2953 13.6353 14.3007 12.6386C14.306 10.3948 14.2953 8.15629 14.3118 5.91826L14.3136 5.9196Z" fill="#762B06"/>
</svg>
