<svg width="55" height="55" viewBox="0 0 55 55" fill="none" xmlns="http://www.w3.org/2000/svg">
<g id="Group 9423">
<path id="Vector" d="M44.6875 8.59375H37.8125V5.15625C37.8091 2.30957 35.5029 0.00335156 32.6562 0H22.3438C19.4971 0.00335672 17.1909 2.30957 17.1875 5.15625V8.59375H10.3125C4.61914 8.60046 0.006875 13.2129 0 18.9062V44.6875C0.00671344 50.3809 4.61914 54.9931 10.3125 55H44.6875C50.3809 54.9933 54.9931 50.3809 55 44.6875V18.9062C54.9933 13.2129 50.3809 8.60063 44.6875 8.59375ZM20.625 5.15625C20.625 4.20621 21.3937 3.4375 22.3438 3.4375H32.6562C33.6063 3.4375 34.375 4.20624 34.375 5.15625V8.59375H20.625V5.15625ZM51.5625 44.6875C51.5591 48.4842 48.4842 51.5591 44.6875 51.5625H10.3125C6.51578 51.5591 3.44085 48.4842 3.4375 44.6875V18.9062C3.44086 15.1095 6.51578 12.0346 10.3125 12.0312H44.6875C48.4842 12.0346 51.5591 15.1095 51.5625 18.9062V44.6875Z" fill="#AC4800"/>
<path id="Vector_2" d="M36.3619 28.3595H31.2795C31.0915 28.3595 30.9371 28.205 30.9371 28.0171V22.9313C30.9371 22.8406 30.9002 22.7534 30.8364 22.6896C30.7726 22.6258 30.6853 22.5889 30.5947 22.5889H24.4045C24.2165 22.5889 24.0621 22.7433 24.0621 22.9313V28.0171C24.0621 28.1077 24.0252 28.195 23.9614 28.2588C23.8976 28.3225 23.8103 28.3595 23.7197 28.3595H18.6373C18.4459 28.3595 18.2915 28.5139 18.2915 28.7019V34.892C18.2915 35.08 18.4459 35.2345 18.6373 35.2345H23.7197C23.8103 35.2345 23.8976 35.2714 23.9614 35.3352C24.0252 35.3989 24.0621 35.4862 24.0621 35.5769V40.6626C24.0621 40.8506 24.2165 41.0051 24.4045 41.0051H30.5947C30.6853 41.0051 30.7726 40.9681 30.8364 40.9043C30.9002 40.8406 30.9371 40.7533 30.9371 40.6626V35.5769C30.9371 35.3889 31.0915 35.2345 31.2795 35.2345H36.3619C36.4526 35.2345 36.5432 35.1975 36.607 35.1337C36.6708 35.07 36.7077 34.9827 36.7077 34.892V28.7019C36.7077 28.5139 36.5533 28.3595 36.3619 28.3595Z" fill="#AC4800"/>
</g>
</svg>
