<svg width="136" height="24" viewBox="0 0 136 24" fill="none" xmlns="http://www.w3.org/2000/svg">
<path d="M39.9993 2.5L36.9428 8.7388L30 9.74555L35.0294 14.6625L33.8272 21.5L39.9993 18.2096L46.1727 21.5L44.9793 14.6625L50 9.74555L43.0956 8.7388L39.9993 2.5Z" fill="#FFDE22" stroke="#FFDE22" stroke-width="2" stroke-linejoin="round"/>
<path d="M11.9993 2.5L8.9428 8.7388L2 9.74555L7.02945 14.6625L5.8272 21.5L11.9993 18.2096L18.1727 21.5L16.9793 14.6625L22 9.74555L15.0956 8.7388L11.9993 2.5Z" fill="#FFDE22" stroke="#FFDE22" stroke-width="2" stroke-linejoin="round"/>
<path d="M67.9993 2.5L64.9428 8.7388L58 9.74555L63.0294 14.6625L61.8272 21.5L67.9993 18.2096L74.1727 21.5L72.9793 14.6625L78 9.74555L71.0956 8.7388L67.9993 2.5Z" fill="#FFDE22" stroke="#FFDE22" stroke-width="2" stroke-linejoin="round"/>
<path d="M95.9993 2.5L92.9428 8.7388L86 9.74555L91.0294 14.6625L89.8272 21.5L95.9993 18.2096L102.173 21.5L100.979 14.6625L106 9.74555L99.0956 8.7388L95.9993 2.5Z" fill="#FFDE22" stroke="#FFDE22" stroke-width="2" stroke-linejoin="round"/>
<path d="M123.999 2.5L120.943 8.7388L114 9.74555L119.029 14.6625L117.827 21.5L123.999 18.2096L130.173 21.5L128.979 14.6625L134 9.74555L127.096 8.7388L123.999 2.5Z" fill="#FFDE22" stroke="#FFDE22" stroke-width="2" stroke-linejoin="round"/>
</svg>
